<svg xmlns="http://www.w3.org/2000/svg" viewBox="0 0 409.85 288"><defs><style>.cls-1{fill:#fff;}</style></defs><g id="Layer_2" data-name="Layer 2"><g id="Layer_1-2" data-name="Layer 1"><g id="Design_Mindfulness_-_Clubhouse_Blueprints_-_Mono" data-name="Design Mindfulness - Clubhouse Blueprints - Mono"><path id="dm-svg-path" class="cls-1" d="M158.58,87.46c-.18,25.21,1.62,51.7,3.25,76.93a845.15,845.15,0,0,1,.43,96.16c-.1,1.49-.51,10.71-.6,12.12a6.39,6.39,0,0,1-4,5.62l-.29.12-1.16.46a121.27,121.27,0,0,1-79.48,2.83,111,111,0,0,1-51.31-33.15C10.32,231.1,2,209.42.33,186.45c-4.14-52.26,31.08-101.94,83-112.06,22.56-4.4,46.2-1.49,67.32,7.34,1.45.59,3,1.29,4.42,2l1.1.51.27.13a3.41,3.41,0,0,1,2.1,3.13Zm-1.21,0a2.21,2.21,0,0,0-1.42-2l-.27-.12-2.18-1A91.94,91.94,0,0,0,120,76.92c-36.15-1-71.77,18.72-91.26,48.85A103.44,103.44,0,0,0,46,258.76c2.06,1.81,5.05,4.28,7.24,5.9,1.43,1.1,3.31,2.31,4.79,3.35l4.5,2.76,4.66,2.49,4.27,2c26.36,11.61,57.6,10.6,82.94-3.21l.25-.14.13-.06.09,0a.82.82,0,0,0-.58.67l-.11-2.3c-.52-9.36-.94-19.54-1.23-28.84q-1.22-38.49,1.18-76.93c1.6-25.23,3.47-51.7,3.26-76.93Z"/><path id="dm-svg-path-2" data-name="dm-svg-path" class="cls-1" d="M240.37,39.75c-.17,30.73,1.63,63,3.26,93.79,2.71,48.83,1.52,97.72-.76,146.54l-.06,1.47,0,.73v.26l0,.38a6.35,6.35,0,0,1-.13.76,5.71,5.71,0,0,1-5.92,4.3h-.37l-1.46-.06c-20.36-.75-41.2-1.05-61.55-.92l-11.73.11h-.73a4.79,4.79,0,0,1-4.7-3.37,6.59,6.59,0,0,1-.21-2l-.1-5.9a4.88,4.88,0,0,1,2.58-4.28,103.44,103.44,0,0,0,12.05-7.76c32-24,46.91-66.14,37.86-105A101.85,101.85,0,0,0,165,97.19c-2.21-1.41-4.78-3-7.09-4.23l-1.2-.66-.15-.09a9.11,9.11,0,0,1-3.22-2.76,9.26,9.26,0,0,1-1.73-5.5v-1.1c0-2.52.15-12.08.15-14.65.21-19.74.74-40.37,1.71-60.09a7.27,7.27,0,0,1,6.72-7.7h.71l.74,0c.8,0,3.51.2,4.39.23,11,.65,30.39,1.54,41.16,2.23,18.5,1.71,33.54,18.35,33.22,36.85Zm-1.21,0c.09-15.6-11.34-29.69-26.72-32.52a33.41,33.41,0,0,0-8.35-.52c-9.12.41-28.78,1.51-38.1,2-1.32,0-3.82.21-5.13.26h-.11a1.09,1.09,0,0,0,.31,0,1.66,1.66,0,0,0,1.42-1.49v.26l0,.36c1.19,23.62,1.64,48.16,1.84,71.81l0,2.93c0,.34,0,.79,0,1.1,0,.09,0,.12,0,0a3.7,3.7,0,0,0-2-3.16l.17.09,1.37.73C191.57,96,212.1,123,219,153.29c11.65,50.11-12.63,99.49-58.56,122.13a.56.56,0,0,0-.34.47l-.06,2.89,0,2.93v.7a.75.75,0,0,0,.65.76c3.34.09,9.29.08,12.66.13,20.34.15,41.2-.19,61.55-.92l1.46-.06H237c-.07-.08-.2,0-.25.09,0-.45-.07-1.8-.09-2.31-2.29-48.82-3.47-97.71-.76-146.54,1.6-30.79,3.46-63,3.25-93.79Z"/><path id="dm-svg-path-3" data-name="dm-svg-path" class="cls-1" d="M330.5,285.75c-17.41-.05-34.84.49-52.24,1.45-1.48.1-11.19.63-12.45.7a5.66,5.66,0,0,1-5.67-5.43c0-.13-.09-1.48-.1-1.67-3.24-46.1-2.79-92.33-.24-138.44,1.73-33.92,1.92-67.92.87-101.87A38.65,38.65,0,0,1,291.29,1C315.85-4.28,338.85,14.88,339,39.88c.91,54.41,1.52,108.91-1.76,163.25-1.49,24.35-3.08,48.74-3.34,73.14l-.05,5.22v.66a3.61,3.61,0,0,1-.64,2.21,3.38,3.38,0,0,1-2.74,1.39Zm0-1.21a2.14,2.14,0,0,0,2.1-1.83,9.47,9.47,0,0,0,0-1.22l-.05-5.22c-.1-7-.26-13.93-.52-20.9-1.12-31.34-4-62.67-4.66-94-1-40.83-.62-81.74.08-122.57-.07-14.46-11.37-27-25.58-29.14C283.41,6.55,266.07,21,265.63,39.84c-1.07,34.16-.89,68.38.85,102.52,2.55,46.11,3,92.34-.24,138.44l-.07,1.3,0,.29-.07-.07a.13.13,0,0,0-.18,0v0s.09,0,.13,0h.16l.33,0c21.23,1.29,42.73,2.23,64,2.12Z"/><path id="dm-svg-path-4" data-name="dm-svg-path" class="cls-1" d="M400.61,285.75q-20.49,0-41,1a4.62,4.62,0,0,1-1.8-.22,4.56,4.56,0,0,1-3.05-4.51l-.07-1.24-.13-2.48c-1.34-22.65-3.09-46.93-3.32-69.54-1-48.05,4.23-96,3.52-144,0-4.76-.11-10.15-.19-14.9,0-6.84-.88-13.73,1-20.44A38.27,38.27,0,0,1,362.63,15,38.77,38.77,0,0,1,392.39.31C394.9.22,398,.08,400.46,0a7.56,7.56,0,0,1,7.73,7.07c.46,13.74.65,27.48.89,41.21.78,39.74,1.19,79.48.15,119.22-.66,28.16-3.21,56.3-4.46,84.44-.43,9.85-.7,19.94-.77,29.8v.62l0,.38a3.39,3.39,0,0,1-3.36,3Zm0-1.21a2.15,2.15,0,0,0,2.13-2.17v-.62l-.06-5c-.09-6.62-.25-13.24-.52-19.87-.6-16.55-1.79-33.14-2.82-49.67-4.09-66.38-2.28-133.58-.8-199.69a2,2,0,0,0,1.75,1.83l-4.18-.15c-.84-.06-2.9-.1-3.72-.15A31.38,31.38,0,0,0,370.67,16a31.78,31.78,0,0,0-11.79,23.89q-1.22,44.7,1.08,89.4c1.36,26.48,2.48,53,2,79.48-.25,22.59-2,46.93-3.32,69.54l-.13,2.48-.07,1.24v.47a1.55,1.55,0,0,0,0,.22,1.06,1.06,0,0,0,.91.85h.27q20.49,1,41,1Z"/></g></g></g></svg>