<svg xmlns="http://www.w3.org/2000/svg" viewBox="0 0 408 288"><defs><style>.cls-1{fill:#111117;}</style></defs><g id="Layer_2" data-name="Layer 2"><g id="Layer_1-2" data-name="Layer 1"><g id="Design_Mindfulness_-_Web_Development_-_Dark" data-name="Design Mindfulness - Web Development - Dark"><path id="dm-svg-path" class="cls-1" d="M156,83.23V276.77a108,108,0,1,1,0-193.54Z"/><path id="dm-svg-path-2" data-name="dm-svg-path" class="cls-1" d="M240,29.91V288H162.09a6.09,6.09,0,0,1-6.09-6.09v-5.14a108,108,0,0,0,0-193.54V6.09A6.09,6.09,0,0,1,162.09,0h48A29.91,29.91,0,0,1,240,29.91Z"/><path id="dm-svg-path-3" data-name="dm-svg-path" class="cls-1" d="M300,0h0a36,36,0,0,1,36,36V288a0,0,0,0,1,0,0H264a0,0,0,0,1,0,0V36A36,36,0,0,1,300,0Z"/><path id="dm-svg-path-4" data-name="dm-svg-path" class="cls-1" d="M396,0h5.91A6.09,6.09,0,0,1,408,6.09V281.91a6.09,6.09,0,0,1-6.09,6.09H360a0,0,0,0,1,0,0V36A36,36,0,0,1,396,0Z"/></g></g></g></svg>