<svg xmlns="http://www.w3.org/2000/svg" viewBox="0 0 485.81 275.02"><defs><style>.cls-1{fill:#fff;}</style></defs><g id="Layer_2" data-name="Layer 2"><g id="Layer_1-2" data-name="Layer 1"><g id="Design_Mindfulness_-_Branding_Identity_-_Mono" data-name="Design Mindfulness - Branding &amp; Identity - Mono"><path id="dm-svg-path" class="cls-1" d="M0,152.76C0,98,107.18,105,90,53.52,72.5,1.15,180,98,180,152.76S139.71,252,90,252,0,207.57,0,152.76Z"/><path id="dm-svg-path-2" data-name="dm-svg-path" class="cls-1" d="M277.08,16.45l-63.5,63.46a9.64,9.64,0,0,1-16.46-6.82V9.64A9.63,9.63,0,0,1,206.75,0h63.52A9.63,9.63,0,0,1,277.08,16.45Z"/><path id="dm-svg-path-3" data-name="dm-svg-path" class="cls-1" d="M381,8.23,301,88.14a4.82,4.82,0,0,1-8.23-3.41V4.82A4.82,4.82,0,0,1,297.59,0h80A4.82,4.82,0,0,1,381,8.23Z"/><polygon id="dm-svg-path-4" data-name="dm-svg-path" class="cls-1" points="485.81 0 389.38 96.36 389.38 0 485.81 0"/><path id="dm-svg-path-5" data-name="dm-svg-path" class="cls-1" d="M268.85,121.29l-47.05,47a14.46,14.46,0,0,1-24.68-10.23v-47a14.45,14.45,0,0,1,14.45-14.45h47.06A14.46,14.46,0,0,1,268.85,121.29Z"/><path id="dm-svg-path-6" data-name="dm-svg-path" class="cls-1" d="M372.74,113.06l-63.51,63.47a9.64,9.64,0,0,1-16.46-6.82V106.25a9.65,9.65,0,0,1,9.64-9.64h63.52A9.64,9.64,0,0,1,372.74,113.06Z"/><path id="dm-svg-path-7" data-name="dm-svg-path" class="cls-1" d="M477.58,104.84l-80,79.91a4.82,4.82,0,0,1-8.23-3.41V101.43a4.82,4.82,0,0,1,4.82-4.82h80A4.82,4.82,0,0,1,477.58,104.84Z"/><path id="dm-svg-path-8" data-name="dm-svg-path" class="cls-1" d="M261.76,224l-32.88,32.86c-11.72,11.71-31.76,3.41-31.76-13.17V211.54a19.28,19.28,0,0,1,19.27-19.28h32.22C265.19,192.26,273.49,212.31,261.76,224Z"/><path id="dm-svg-path-9" data-name="dm-svg-path" class="cls-1" d="M364.51,216.94l-47.06,47a14.46,14.46,0,0,1-24.68-10.23v-47a14.46,14.46,0,0,1,14.46-14.46h47.06A14.46,14.46,0,0,1,364.51,216.94Z"/><path id="dm-svg-path-10" data-name="dm-svg-path" class="cls-1" d="M469.34,208.72l-63.5,63.46a9.64,9.64,0,0,1-16.46-6.82V201.91a9.65,9.65,0,0,1,9.64-9.65h63.51A9.64,9.64,0,0,1,469.34,208.72Z"/></g></g></g></svg>